<?xml version="1.0" encoding="UTF-8" standalone="no"?>
<!-- Created with Inkscape (http://www.inkscape.org/) -->
<svg id="svg2" xmlns:rdf="http://www.w3.org/1999/02/22-rdf-syntax-ns#" xmlns="http://www.w3.org/2000/svg" viewBox="0 0 1292.7 1203.6" version="1.1" xmlns:cc="http://creativecommons.org/ns#" xmlns:dc="http://purl.org/dc/elements/1.1/">
 <metadata id="metadata7">
  <rdf:RDF>
   <cc:Work rdf:about="">
    <dc:format>image/svg+xml</dc:format>
    <dc:type rdf:resource="http://purl.org/dc/dcmitype/StillImage"/>
    <dc:title/>
   </cc:Work>
  </rdf:RDF>
 </metadata>
 <g id="layer1" stroke-linejoin="miter" transform="translate(286.49624,344.80849)" stroke="#000" stroke-linecap="butt" stroke-miterlimit="4" stroke-dasharray="none" stroke-width="3" fill="#000">
  <g id="g3911" transform="matrix(1,0,-0.26794811,1,68.514714,1.2731323)">
   <path id="path2991-8-9" d="M616.06,21.416,345.53,489.99"/>
   <path id="path2991-3-4" d="M498.92,21.416,228.39,489.99"/>
   <path id="path2991-4-6" d="M381.78,21.416,111.25,489.99"/>
   <path id="path2991-5-2" d="M264.63,21.416-5.8951,489.99"/>
   <path id="path2991-5-9-8" d="M733.2,21.416,462.68,489.99"/>
   <path id="path2991-8-9-5" d="m530.31,372.84-468.57,0"/>
   <path id="path2991-3-4-3" d="m597.94,255.7-468.57,0"/>
   <path id="path2991-4-6-3" d="m665.57,138.56-468.57,0"/>
   <path id="path2991-5-2-7" d="m733.2,21.416-468.57,0"/>
   <path id="path2991-5-9-8-89" d="m462.68,489.99-468.57,0"/>
  </g>
  <g id="g3891" transform="matrix(1,0,-0.26794811,1,-273.99055,129.85015)">
   <path id="path2991" d="M674.63-468.16,404.1,0.41279"/>
   <path id="path2991-8" d="M616.06-468.16,345.53,0.41279"/>
   <path id="path2991-1" d="M557.49-468.16,286.96,0.41279"/>
   <path id="path2991-3" d="M498.92-468.16,228.39,0.41279"/>
   <path id="path2991-13" d="M440.35-468.16,169.82,0.41279"/>
   <path id="path2991-4" d="M381.78-468.16,111.25,0.41279"/>
   <path id="path2991-2" d="M323.2-468.16,52.676,0.41279"/>
   <path id="path2991-5" d="M264.63-468.16-5.8951,0.41279"/>
   <path id="path2991-5-9" d="M733.2-468.16,462.68,0.41279"/>
   <path id="path2991-21" d="m496.49-58.159-468.57,0"/>
   <path id="path2991-8-5" d="m530.31-116.73-468.57,0"/>
   <path id="path2991-1-3" d="m564.12-175.3-468.57,0"/>
   <path id="path2991-3-5" d="m597.94-233.87-468.57,0"/>
   <path id="path2991-13-1" d="m631.76-292.44-468.57,0"/>
   <path id="path2991-4-7" d="m665.57-351.02-468.57,0"/>
   <path id="path2991-2-2" d="m699.39-409.59-468.57,0"/>
   <path id="path2991-5-26" d="m733.2-468.16-468.57,0"/>
   <path id="path2991-5-9-6" d="m462.68,0.41279-468.57,0"/>
  </g>
  <g id="g3923" transform="matrix(1,0,-0.26794811,1,403.38175,-127.30406)">
   <path id="path2991-3-4-0" d="M498.92,510.99,228.39,979.56"/>
   <path id="path2991-5-2-3" d="M264.63,510.99-5.8951,979.56"/>
   <path id="path2991-5-9-8-8" d="M733.2,510.99,462.68,979.56"/>
   <path id="path2991-3-4-0-3" d="m129.37,745.28,468.57,0"/>
   <path id="path2991-5-2-3-3" d="m-5.8951,979.56,468.57,0"/>
   <path id="path2991-5-9-8-8-4" d="m264.63,510.99,468.57,0"/>
  </g>
 </g>
</svg>
